<?xml version="1.0" encoding="utf-8"?>
<!-- Generator: Adobe Illustrator 17.0.0, SVG Export Plug-In . SVG Version: 6.00 Build 0)  -->
<!DOCTYPE svg PUBLIC "-//W3C//DTD SVG 1.1//EN" "http://www.w3.org/Graphics/SVG/1.1/DTD/svg11.dtd">
<svg version="1.1" id="Layer_1" xmlns="http://www.w3.org/2000/svg" xmlns:xlink="http://www.w3.org/1999/xlink" x="0px" y="0px"
	 width="505.333px" height="500px" viewBox="547.167 0 505.333 500" enable-background="new 547.167 0 505.333 500"
	 xml:space="preserve">
<title>VIBRANT</title>
<path fill="#FFFFFF" d="M550.521,191.497l6.123-15.182l61.454,4.671l-47.535-39.202l6.155-15.277l61.265,52.459l-7.007,17.328
	L550.521,191.497z"/>
<path fill="#FFFFFF" d="M663.645,39.044l42.674,63.38l-12.625,8.427L651.02,47.377L663.645,39.044z"/>
<path fill="#FFFFFF" d="M827.776,54.037c0,13.099-10.384,22.095-23.578,22.379L771.782,76.7l-0.821-76.416L801.105,0
	c12.878,0,23.326,8.522,23.452,21.305c0.18,5.939-2.438,11.619-7.07,15.34C823.911,40.049,827.886,46.767,827.776,54.037z
	 M786.08,14.235v16.823l15.087-0.158c4.637-0.044,8.361-3.838,8.317-8.475s-3.838-8.361-8.475-8.317L786.08,14.235z M812.657,53.185
	c0.143-4.757-3.598-8.729-8.355-8.871c-0.193-0.006-0.385-0.005-0.578,0.002l-17.36,0.158l0.189,18.023h17.36
	c4.794,0.047,8.718-3.8,8.766-8.594C812.682,53.663,812.674,53.424,812.657,53.185L812.657,53.185z"/>
<path fill="#FFFFFF" d="M925.971,94.344l-8.996-7.133l-16.602,20.769l-11.805-9.469l47.598-59.813l23.925,18.938
	c10.972,8.608,12.888,24.481,4.279,35.453c-0.048,0.061-0.096,0.122-0.145,0.182c-6.149,7.452-16.052,10.675-25.409,8.27
	l-4.671,33.079l-12.625-10.1L925.971,94.344z M925.213,76.889l12.12,9.627c4.866,3.511,11.655,2.424,15.182-2.43
	c3.907-4.48,3.443-11.279-1.036-15.186c-0.023-0.02-0.045-0.039-0.068-0.059l-12.152-9.658L925.213,76.889z"/>
<path fill="#FFFFFF" d="M989.224,230.667l-6.06-29.859l-14.393-1.768l-3.156-15.94l80.235,11.047l3.693,18.307l-69.598,41.475
	l-3.156-16.034L989.224,230.667z M1002.102,223.25l28.407-16.445l-32.7-4.072L1002.102,223.25z"/>
<path fill="#FFFFFF" d="M1005.322,404.331l-66.536-37.624l5.776-10.006l56.815-5.524l-40.812-22.884l7.386-13.13l66.536,37.592
	l-5.618,10.006l-56.815,5.555l40.591,22.947L1005.322,404.331z"/>
<path fill="#FFFFFF" d="M861.044,486.617l19.191-7.607l-22.821-57.667l14.014-5.524l22.789,57.667l19.096-7.544l5.303,13.415
	l-52.269,20.674L861.044,486.617z"/>
</svg>
