<svg xmlns="http://www.w3.org/2000/svg" viewBox="777.371 2978.477 170.288 104.39"><defs><style>.a{fill:#fff;}</style></defs><g transform="translate(777.413 2978.485)"><g transform="translate(4.414 31.46)"><path class="a" d="M5.8,24.946c61.03-10.637,113.69,28.946,157.98,65.389,2.616,2.092,6.277-1.569,3.662-3.662C121.585,48.835,67.7,8.9,4.408,19.889c-3.313.523-1.918,5.58,1.395,5.057Z" transform="translate(-2.514 -18.039)"/></g><g transform="translate(-0.042 -0.008)"><path class="a" d="M22.177,72.37a96.544,96.544,0,0,0-6.452-19.7,80.744,80.744,0,0,0-5.406-10.114C7.7,38.193,4.042,36.1,8.227,31.567c10.811-12.206,28.6-20.75,43.418-26.33C54.784,4.017,53.389-1.04,50.25.18,32.988,6.632,15.2,16.223,2.3,29.824-2.41,34.88.9,37.67,4.216,42.727a90.213,90.213,0,0,1,12.9,31.038c.7,3.139,5.754,1.744,5.057-1.395Z" transform="translate(0.042 0.008)"/></g></g></svg>