<svg xmlns="http://www.w3.org/2000/svg" viewBox="1059.823 4177.961 279.726 163.633"><defs><style>.a{fill:#fff;}</style></defs><g transform="translate(1298.663 4373.65) rotate(-159)"><g transform="translate(-0.042 34.354)"><path class="a" d="M246.746,25.581c-91.7-11.615-170.828,31.607-237.378,71.4-3.93,2.285-9.432-1.714-5.5-4C72.773,51.666,153.733,8.064,248.842,20.059c4.978.571,2.882,6.093-2.1,5.522Z" transform="translate(-2.514 -18.039)"/></g><g transform="translate(175.506 -0.008)"><path class="a" d="M46.9,79.024A86.906,86.906,0,0,1,56.59,57.509a84.084,84.084,0,0,1,8.122-11.043c3.93-4.76,9.432-7.045,3.144-12C51.611,21.142,24.887,11.812,2.616,5.719-2.1,4.387,0-1.135,4.712.2,30.651,7.243,57.376,17.715,76.764,32.566c7.074,5.522,2.1,8.568-2.882,14.09A86.5,86.5,0,0,0,54.494,80.547c-1.048,3.427-8.646,1.9-7.6-1.523Z" transform="translate(0.042 0.008)"/></g></g></svg>