<svg xmlns="http://www.w3.org/2000/svg" viewBox="156.154 2858 194.096 22.195"><defs><style>.a{fill:#fff;}</style></defs><g transform="translate(156.179 2858.022)"><g transform="translate(-0.025 -0.022)"><path class="a" d="M2.578,10.968c63.389-.3,126.779-2.991,189.437-8.077,3.471-.3,2.009-3.191-1.461-2.892C128.444,5.085,65.6,7.678,2.578,7.977c-3.471.1-3.471,3.091,0,2.991Z" transform="translate(0.025 0.022)"/></g><g transform="translate(77.866 12.663)"><path class="a" d="M46.06,22.173a1034.8,1034.8,0,0,1,110.155-6.481c3.471,0,3.471-2.991,0-2.991A1036.181,1036.181,0,0,0,44.6,19.281c-3.471.4-2.009,3.29,1.461,2.892Z" transform="translate(-42.614 -12.7)"/></g></g></svg>