<svg xmlns="http://www.w3.org/2000/svg" viewBox="666 3557.061 220.608 152.908"><defs><style>.a{fill:#fff;}</style></defs><g transform="matrix(-0.875, -0.485, 0.485, -0.875, 839.626, 3712.46)"><g transform="translate(5.154 -0.008)"><path class="a" d="M6.349,79.279c71.16,9.868,132.561-26.853,184.2-60.661,3.05-1.941,7.319,1.456,4.27,3.4-53.472,35.1-116.3,72.146-190.1,61.955-3.863-.485-2.236-5.176,1.627-4.691Z" transform="translate(-2.514 -18.039)"/></g><g transform="translate(-0.042 26.753)"><path class="a" d="M25.865,2.927a77.432,77.432,0,0,1-7.523,18.279,71.486,71.486,0,0,1-6.3,9.382C8.989,34.633,4.72,36.574,9.6,40.78,22.2,52.1,42.943,60.029,60.225,65.206c3.66,1.132,2.033,5.823-1.627,4.691C38.47,63.912,17.732,55.015,2.687,42.4-2.8,37.706,1.06,35.118,4.923,30.427A75.507,75.507,0,0,0,19.968,1.633c.813-2.912,6.709-1.618,5.9,1.294Z" transform="translate(0.042 0.008)"/></g></g></svg>