<svg xmlns="http://www.w3.org/2000/svg" viewBox="1001.717 3616.227 126.502 26.502"><defs><style>.a{fill:#fff;}</style></defs><g transform="translate(1001.742 3616.249)"><g transform="translate(-0.025 -0.022)"><path class="a" d="M1.672,13.1A892.546,892.546,0,0,0,125.137,3.457c2.262-.357,1.31-3.81-.952-3.453A877.387,877.387,0,0,1,1.672,9.529c-2.262.119-2.262,3.691,0,3.572Z" transform="translate(0.025 0.022)"/></g><g transform="translate(50.741 15.125)"><path class="a" d="M44.86,24.011a373.239,373.239,0,0,1,71.793-7.739c2.262,0,2.262-3.572,0-3.572a373.769,373.769,0,0,0-72.746,7.858c-2.262.476-1.31,3.929.952,3.453Z" transform="translate(-42.614 -12.7)"/></g></g></svg>